<?xml version="1.0" encoding="UTF-8"?>
<svg width="138px" height="325px" viewBox="0 0 138 325" version="1.1" xmlns="http://www.w3.org/2000/svg" xmlns:xlink="http://www.w3.org/1999/xlink">
    <!-- Generator: Sketch 43.2 (39069) - http://www.bohemiancoding.com/sketch -->
    <title>Page 1</title>
    <desc>Created with Sketch.</desc>
    <defs>
        <polygon id="path-1" points="0.659958333 0.856698214 0.659958333 5.09212679 0.35015 5.09212679 0.35015 0.856698214 0.659958333 0.856698214"></polygon>
        <polygon id="path-3" points="0.000783333333 0.60775 137.4327 0.60775 137.4327 324.052598 0.000783333333 324.052598"></polygon>
    </defs>
    <g id="Page-1" stroke="none" stroke-width="1" fill="none" fill-rule="evenodd">
        <g id="website" transform="translate(-17.000000, -16.000000)">
            <g id="Page-1" transform="translate(17.000000, 16.000000)">
                <g id="Group-3" transform="translate(137.083333, 54.838679)">
                    <mask id="mask-2" fill="white">
                        <use xlink:href="#path-1"></use>
                    </mask>
                    <g id="Clip-2"></g>
                    <path d="M0.659566667,3.09509107 C0.659566667,2.26980536 0.534233333,1.53989464 0.35015,0.856698214 L0.35015,5.09212679 C0.534233333,4.47121607 0.659566667,3.8191625 0.659566667,3.09509107" id="Fill-1" fill="#FEFEFE" mask="url(#mask-2)"></path>
                </g>
                <path d="M127.884258,20.8663732 C124.790092,20.8663732 122.397008,21.5184268 120.701092,22.8186411 C119.007133,24.1188554 118.159175,25.7733196 118.159175,27.7839804 C118.159175,29.7051054 119.007133,31.2194268 120.701092,32.3288911 C122.397008,33.4364089 125.683092,34.8631411 130.5613,36.6071411 C133.0993,37.3643018 135.335717,38.1895875 137.433092,39.0460161 L137.433092,27.0151411 C137.041425,25.5416946 136.322717,24.2667839 135.200592,23.2390696 C133.4753,21.6585696 131.037175,20.8663732 127.884258,20.8663732" id="Fill-4" fill="#E3946B"></path>
                <path d="M27.665375,38.75775 C29.345625,36.9981786 30.18575,34.6858214 30.18575,31.8187321 C30.18575,28.8913036 29.3515,26.5263929 27.6869167,24.724 C26.020375,22.9216071 23.5078333,22.0184643 20.1473333,22.0184643 L8.9065,22.0184643 L8.9065,41.3951607 L20.1473333,41.3951607 C23.4784583,41.3951607 25.985125,40.5173214 27.665375,38.75775" id="Fill-6" fill="#E3946B"></path>
                <g id="Group-10">
                    <mask id="mask-4" fill="white">
                        <use xlink:href="#path-3"></use>
                    </mask>
                    <g id="Clip-9"></g>
                    <path d="M109.170033,70.1877054 C103.831617,66.5517768 101.162408,61.1426518 101.162408,53.9603304 L116.241575,53.9603304 C116.241575,57.7733839 117.228575,60.4555625 119.206492,62.0068661 C121.186367,63.5601161 124.270742,64.3347946 128.463533,64.3347946 C131.645825,64.3347946 133.987992,63.7294554 135.490033,62.5168304 C136.467242,61.7304732 137.09195,60.7416875 137.4327,59.5913482 L137.4327,55.3559196 C137.095867,54.1082589 136.486825,53.0708125 135.535075,52.2980804 C134.062408,51.1010268 131.318783,49.7910804 127.3042,48.3721339 C118.916658,45.7425089 112.790992,42.9922054 108.925242,40.1251161 C105.057533,37.2599732 103.124658,33.0031339 103.124658,27.3565446 C103.124658,21.8286875 105.445283,17.4239196 110.084575,14.1422411 C114.723867,10.8625089 120.7477,9.22166964 128.152158,9.22166964 C131.5577,9.22166964 134.628367,9.65377679 137.4327,10.4342946 L137.4327,0.606776786 L66.6546167,0.606776786 L66.6546167,32.4542411 L66.7897417,32.4990089 C68.2154083,30.3715625 69.9485333,28.7307232 71.9852,27.5784375 C74.0218667,26.4242054 76.3346583,25.8480625 78.923575,25.8480625 C84.0093667,25.8480625 87.9573667,27.5414554 90.767575,30.9262946 C93.5777833,34.3111339 94.9819083,39.7124732 94.9819083,47.1322589 L94.9819083,74.7112054 L79.9047,74.7112054 L79.9047,47.0427232 C79.9047,43.2900089 79.3544083,40.7401875 78.253825,39.3932589 C77.1532417,38.0502232 75.4436167,37.3767589 73.1229917,37.3767589 C71.6366167,37.3767589 70.3715333,37.5830804 69.3316583,37.9976696 C68.289825,38.4122589 67.3987833,39.0175982 66.6546167,39.8156339 L66.6546167,74.7112054 L51.5774083,74.7112054 L51.5774083,0.606776786 L0.000783333333,0.606776786 L0.000783333333,10.1520625 L20.1481167,10.1520625 C27.999075,10.1520625 34.1482417,12.0731875 38.5936583,15.9173839 C43.0410333,19.7596339 45.2637417,24.9176696 45.2637417,31.3895446 C45.2637417,37.8653125 43.0410333,43.0155625 38.5936583,46.8441875 C34.1482417,50.6708661 27.999075,52.5861518 20.1481167,52.5861518 L8.90728333,52.5861518 L8.90728333,74.7112054 L0.000783333333,74.7112054 L0.000783333333,324.052598 L137.4327,324.052598 L137.4327,74.6664375 C134.7302,75.2815089 131.777033,75.6415982 128.463533,75.6415982 C120.939617,75.6415982 114.50845,73.8236339 109.170033,70.1877054" id="Fill-8" fill="#E3946B" mask="url(#mask-4)"></path>
                </g>
                <path d="M22.723325,295.557079 C21.0607,295.557079 19.6879083,296.004757 18.6029917,296.900114 C17.5219917,297.797418 16.9795333,299.017829 16.9795333,300.563293 C16.9795333,302.042579 17.5219917,303.208489 18.6029917,304.059079 C19.6879083,304.909668 21.0607,305.333989 22.723325,305.333989 L25.93695,305.333989 C27.6152417,305.333989 28.9958667,304.909668 30.078825,304.059079 C31.1637417,303.208489 31.7042417,302.042579 31.7042417,300.563293 C31.7042417,299.010043 31.1657,297.787686 30.0847,296.894275 C29.0056583,296.002811 27.623075,295.557079 25.93695,295.557079 L22.723325,295.557079 Z M25.93695,293.275864 C28.151825,293.275864 29.9887417,293.943489 31.4437833,295.278739 C32.898825,296.615936 33.627325,298.377454 33.627325,300.563293 C33.627325,302.6849 32.898825,304.389971 31.4437833,305.680454 C29.9887417,306.970936 28.151825,307.615204 25.93695,307.615204 L22.7487833,307.615204 C20.5397833,307.615204 18.7028667,306.970936 17.2399917,305.680454 C15.7751583,304.389971 15.0447,302.6849 15.0447,300.563293 C15.0447,298.377454 15.7751583,296.615936 17.2399917,295.278739 C18.7028667,293.943489 20.5397833,293.275864 22.7487833,293.275864 L25.93695,293.275864 Z" id="Fill-11" fill="#FEFEFE"></path>
                <path d="M33.3670625,289.003064 L21.6934375,289.003064 L21.6934375,291.099368 L19.9446458,291.099368 L19.9446458,289.003064 L18.2193542,289.003064 C16.7721458,289.003064 15.6656875,288.642975 14.9019375,287.924743 C14.1362292,287.204564 13.7543542,286.174904 13.7543542,284.835761 C13.7543542,284.555475 13.7778542,284.279082 13.8228958,284.002689 C13.8679375,283.728243 13.9325625,283.412921 14.0148125,283.060618 L15.8125625,283.34285 C15.7714375,283.500511 15.7401042,283.681529 15.7146458,283.885904 C15.6891875,284.092225 15.6774375,284.314118 15.6774375,284.551582 C15.6774375,285.291225 15.8928542,285.836225 16.3217292,286.186582 C16.7525625,286.534993 17.3851042,286.710171 18.2193542,286.710171 L19.9446458,286.710171 L19.9446458,283.874225 L21.6934375,283.874225 L21.6934375,286.710171 L33.3670625,286.710171 L33.3670625,289.003064 Z" id="Fill-13" fill="#FEFEFE"></path>
                <path d="M19.9436667,273.806518 L33.3660833,273.806518 L33.3660833,271.513625 L19.9436667,271.513625 L19.9436667,273.806518 Z M33.3660833,281.019982 L21.6944167,281.019982 L21.6944167,283.127964 L19.9436667,283.127964 L19.9436667,281.019982 L18.4690417,281.019982 C16.937625,281.019982 15.7704583,280.597607 14.963625,279.748964 C14.1567917,278.902268 13.753375,277.699375 13.753375,276.138339 C13.753375,275.577768 13.818,275.032768 13.9452917,274.4975 C14.0745417,273.962232 14.2625417,273.347161 14.51125,272.648393 L16.420625,273.029893 C16.2385,273.481464 16.0877083,273.948607 15.96825,274.429375 C15.8487917,274.910143 15.7880833,275.422054 15.7880833,275.965107 C15.7880833,276.95 16.0035,277.6585 16.432375,278.086714 C16.8632083,278.512982 17.5407917,278.727089 18.4690417,278.727089 L19.9436667,278.727089 L19.9436667,276.002089 L21.6944167,276.002089 L21.6944167,278.727089 L33.3660833,278.727089 L33.3660833,281.019982 Z" id="Fill-15" fill="#FEFEFE"></path>
                <path d="M31.7663208,262.640636 C31.7663208,261.793939 31.5195708,261.060136 31.0221542,260.441171 C30.5266958,259.820261 29.8980708,259.504939 29.1362792,259.497154 L29.1362792,257.326886 C30.3602375,257.334671 31.4138208,257.862154 32.2950708,258.911279 C33.1743625,259.960404 33.6149875,261.202225 33.6149875,262.640636 C33.6149875,264.596796 32.9883208,266.078029 31.7349875,267.080439 C30.4836125,268.08285 28.8758208,268.585029 26.9155292,268.585029 L26.3946125,268.585029 C24.4441125,268.585029 22.8382792,268.08285 21.5810292,267.080439 C20.3257375,266.078029 19.6951542,264.596796 19.6951542,262.640636 C19.6951542,261.069868 20.1514458,259.794957 21.0601125,258.812011 C21.9707375,257.831011 23.1359458,257.334671 24.5596542,257.326886 L24.5596542,259.497154 C23.6979875,259.504939 22.9831958,259.800796 22.4133208,260.384725 C21.8434458,260.968654 21.5575292,261.719975 21.5575292,262.640636 C21.5575292,263.964207 22.0177375,264.904332 22.9401125,265.459064 C23.8624875,266.013796 25.0139875,266.290189 26.3946125,266.290189 L26.9155292,266.290189 C28.3314042,266.290189 29.4926958,266.015743 30.4013625,265.464904 C31.3119875,264.914064 31.7663208,263.971993 31.7663208,262.640636" id="Fill-17" fill="#FEFEFE"></path>
                <path d="M21.5567458,249.775132 C21.5567458,250.6374 21.9072875,251.367311 22.6044542,251.964864 C23.3035792,252.560471 24.2122458,252.940025 25.3284958,253.103525 L25.3284958,246.618025 L25.0053708,246.618025 C24.0046625,246.618025 23.1802042,246.880793 22.5319958,247.408275 C21.8818292,247.933811 21.5567458,248.722114 21.5567458,249.775132 M33.6142042,249.405311 C33.6142042,251.279721 33.0051625,252.759007 31.7851208,253.843168 C30.5650792,254.929275 28.9455375,255.472329 26.9284542,255.472329 L26.3703292,255.472329 C24.4178708,255.472329 22.8179125,254.91565 21.5684958,253.800346 C20.3210375,252.686989 19.6963292,251.3459 19.6963292,249.775132 C19.6963292,247.9669 20.2289958,246.608293 21.2962875,245.699311 C22.3635792,244.790329 23.8225375,244.336811 25.6751208,244.336811 L27.1771625,244.336811 L27.1771625,253.179436 C28.5499542,253.1444 29.6583708,252.805721 30.5004542,252.161454 C31.3444958,251.515239 31.7655375,250.596525 31.7655375,249.405311 C31.7655375,248.574186 31.6499958,247.8579 31.4189125,247.254507 C31.1878292,246.649168 30.8607875,246.104168 30.4397458,245.619507 L31.9652875,244.720257 C32.4450792,245.204918 32.8406625,245.827775 33.1500792,246.586882 C33.4594958,247.347936 33.6142042,248.286114 33.6142042,249.405311" id="Fill-18" fill="#FEFEFE"></path>
                <path d="M26.7118625,226.519398 C26.1615708,227.136416 25.6837375,228.263398 25.2783625,229.898398 C24.8161958,231.838988 24.1542792,233.329952 23.2926125,234.373238 C22.4329042,235.416523 21.3205708,235.940112 19.9575708,235.940112 C18.5260292,235.940112 17.3490708,235.373702 16.4266958,234.244773 C15.5043208,233.113898 15.0441125,231.62488 15.0441125,229.773827 C15.0441125,227.794309 15.5767792,226.227434 16.6440708,225.077095 C17.7113625,223.926755 18.9960292,223.350613 20.5019875,223.350613 L20.5019875,225.631827 C19.4111958,225.631827 18.5377792,225.986077 17.8856542,226.690684 C17.2315708,227.399184 16.9045292,228.426898 16.9045292,229.773827 C16.9045292,231.048738 17.1806542,232.014166 17.7289875,232.672059 C18.2792792,233.329952 19.0097375,233.658898 19.9203625,233.658898 C20.7291542,233.658898 21.3989042,233.310487 21.9237375,232.615612 C22.4485708,231.920738 22.9126958,230.75288 23.3180708,229.108148 C23.8076542,227.185077 24.4969875,225.736934 25.3899875,224.761773 C26.2829875,223.788559 27.4207792,223.301952 28.8014042,223.301952 C30.2819042,223.301952 31.4569042,223.883934 32.3244458,225.045952 C33.1919875,226.20797 33.6267375,227.757327 33.6267375,229.688184 C33.6267375,231.52172 33.1489042,233.117791 32.1893208,234.478345 C31.2297375,235.838898 29.8921958,236.518202 28.1806125,236.518202 L28.1806125,234.236987 C29.3810708,234.236987 30.2799458,233.80488 30.8791958,232.936773 C31.4784458,232.070613 31.7780708,230.988398 31.7780708,229.688184 C31.7780708,228.405488 31.5195708,227.403077 30.9966958,226.679005 C30.4757792,225.95688 29.7531542,225.594845 28.8268625,225.594845 C27.9671542,225.594845 27.2621542,225.90238 26.7118625,226.519398 Z" id="Fill-19" fill="#FEFEFE"></path>
                <path d="M16.6818667,217.894773 L19.94445,217.894773 L19.94445,215.32938 L21.6932417,215.32938 L21.6932417,217.894773 L29.9045333,217.894773 C30.56645,217.894773 31.0286167,217.783827 31.289075,217.561934 C31.5495333,217.340041 31.6807417,217.036398 31.6807417,216.649059 C31.6807417,216.45247 31.665075,216.251987 31.6357,216.051505 C31.6082833,215.849077 31.5691167,215.664166 31.5182,215.490934 L33.1436167,215.181452 C33.2846167,215.395559 33.3982,215.693362 33.4843667,216.074862 C33.5724917,216.458309 33.6136167,216.839809 33.6136167,217.21547 C33.6136167,218.145862 33.3237833,218.87188 32.7402,219.399362 C32.1566167,219.924898 31.2127,220.187666 29.9045333,220.187666 L21.6932417,220.187666 L21.6932417,222.099059 L19.94445,222.099059 L19.94445,220.187666 L16.6818667,220.187666 L16.6818667,217.894773 Z" id="Fill-20" fill="#FEFEFE"></path>
                <path d="M26.8168292,211.438664 C28.2816625,211.438664 29.4703708,211.135021 30.3888292,210.525789 C31.3072875,209.918504 31.7655375,208.997843 31.7655375,207.763807 C31.7655375,206.547289 31.3053292,205.632468 30.3829542,205.01545 C29.4625375,204.398432 28.2718708,204.090896 26.8168292,204.090896 L26.5191625,204.090896 C25.0797875,204.090896 23.8930375,204.400379 22.9589125,205.021289 C22.0247875,205.6422 21.5567458,206.564807 21.5567458,207.789111 C21.5567458,209.005629 22.0247875,209.918504 22.9589125,210.525789 C23.8930375,211.135021 25.0797875,211.438664 26.5191625,211.438664 L26.8168292,211.438664 Z M26.5191625,213.733504 C24.4922875,213.733504 22.8492458,213.206021 21.5880792,212.15495 C20.3269125,211.101932 19.6963292,209.64795 19.6963292,207.789111 C19.6963292,205.9147 20.3269125,204.450986 21.5880792,203.394075 C22.8492458,202.337164 24.4922875,201.809682 26.5191625,201.809682 L26.8168292,201.809682 C28.8515375,201.809682 30.4926208,202.335218 31.7420375,203.388236 C32.9914542,204.439307 33.6142042,205.899129 33.6142042,207.763807 C33.6142042,209.638218 32.9914542,211.101932 31.7420375,212.15495 C30.4926208,213.206021 28.8515375,213.733504 26.8168292,213.733504 L26.5191625,213.733504 Z" id="Fill-21" fill="#FEFEFE"></path>
                <path d="M31.7663208,193.726943 C31.7663208,192.880246 31.5195708,192.146443 31.0221542,191.527479 C30.5266958,190.906568 29.8980708,190.591246 29.1362792,190.583461 L29.1362792,188.413193 C30.3602375,188.420979 31.4138208,188.948461 32.2950708,189.997586 C33.1743625,191.046711 33.6149875,192.288532 33.6149875,193.726943 C33.6149875,195.683104 32.9883208,197.164336 31.7349875,198.166746 C30.4836125,199.169157 28.8758208,199.671336 26.9155292,199.671336 L26.3946125,199.671336 C24.4441125,199.671336 22.8382792,199.169157 21.5810292,198.166746 C20.3257375,197.164336 19.6951542,195.683104 19.6951542,193.726943 C19.6951542,192.156175 20.1514458,190.881264 21.0601125,189.898318 C21.9707375,188.917318 23.1359458,188.420979 24.5596542,188.413193 L24.5596542,190.583461 C23.6979875,190.591246 22.9831958,190.887104 22.4133208,191.471032 C21.8434458,192.054961 21.5575292,192.806282 21.5575292,193.726943 C21.5575292,195.050514 22.0177375,195.990639 22.9401125,196.545371 C23.8624875,197.100104 25.0139875,197.376496 26.3946125,197.376496 L26.9155292,197.376496 C28.3314042,197.376496 29.4926958,197.10205 30.4013625,196.551211 C31.3119875,196.000371 31.7663208,195.0583 31.7663208,193.726943" id="Fill-22" fill="#FEFEFE"></path>
                <polygon id="Fill-23" fill="#FEFEFE" points="27.1391708 182.080682 27.1391708 183.670914 33.3666708 183.670914 33.3666708 185.965754 14.0144208 185.965754 14.0144208 183.670914 25.2650458 183.670914 25.2650458 182.117664 19.9442542 178.232593 19.9442542 175.532896 26.0601292 180.194593 33.3666708 174.892521 33.3666708 177.592218"></polygon>
                <path d="M21.76805,171.075964 L21.7798,171.038982 C21.1178833,170.587411 20.6067583,170.026839 20.2425083,169.361161 C19.8782583,168.695482 19.6961333,167.940268 19.6961333,167.093571 C19.6961333,165.637643 20.117175,164.526232 20.9612167,163.757393 C21.8052583,162.988554 23.1408417,162.605107 24.9679667,162.605107 L33.3672583,162.605107 L33.3672583,164.886321 L24.9444667,164.886321 C23.7773,164.886321 22.9293417,165.123786 22.4005917,165.600661 C21.8718417,166.077536 21.6055083,166.8055 21.6055083,167.784554 C21.6055083,168.498893 21.7758833,169.135375 22.114675,169.695946 C22.455425,170.254571 22.9215083,170.713929 23.5168417,171.075964 L33.3672583,171.075964 L33.3672583,173.368857 L14.0150083,173.368857 L14.0150083,171.075964 L21.76805,171.075964 Z" id="Fill-24" fill="#FEFEFE"></path>
                <path d="M26.8168292,157.629646 C28.2816625,157.629646 29.4703708,157.326004 30.3888292,156.716771 C31.3072875,156.109486 31.7655375,155.188825 31.7655375,153.954789 C31.7655375,152.738271 31.3053292,151.82345 30.3829542,151.206432 C29.4625375,150.589414 28.2718708,150.281879 26.8168292,150.281879 L26.5191625,150.281879 C25.0797875,150.281879 23.8930375,150.591361 22.9589125,151.212271 C22.0247875,151.833182 21.5567458,152.755789 21.5567458,153.980093 C21.5567458,155.196611 22.0247875,156.109486 22.9589125,156.716771 C23.8930375,157.326004 25.0797875,157.629646 26.5191625,157.629646 L26.8168292,157.629646 Z M26.5191625,159.924486 C24.4922875,159.924486 22.8492458,159.397004 21.5880792,158.345932 C20.3269125,157.292914 19.6963292,155.838932 19.6963292,153.980093 C19.6963292,152.105682 20.3269125,150.641968 21.5880792,149.585057 C22.8492458,148.528146 24.4922875,148.000664 26.5191625,148.000664 L26.8168292,148.000664 C28.8515375,148.000664 30.4926208,148.5262 31.7420375,149.579218 C32.9914542,150.630289 33.6142042,152.090111 33.6142042,153.954789 C33.6142042,155.8292 32.9914542,157.292914 31.7420375,158.345932 C30.4926208,159.397004 28.8515375,159.924486 26.8168292,159.924486 L26.5191625,159.924486 Z" id="Fill-25" fill="#FEFEFE"></path>
                <polygon id="Fill-26" fill="#FEFEFE" points="14.0138333 145.071679 33.3660833 145.071679 33.3660833 142.790464 14.0138333 142.790464"></polygon>
                <path d="M19.9446458,137.210054 L21.7306458,137.050446 L21.7423958,137.013464 C21.0902708,136.58525 20.5850208,136.04025 20.2305625,135.380411 C19.8741458,134.718625 19.6959375,133.926429 19.6959375,133.005768 C19.6959375,132.077321 19.9054792,131.294857 20.3226042,130.662268 C20.7397292,130.029679 21.3879375,129.552804 22.2652708,129.231643 C21.4623542,128.805375 20.8337292,128.248696 20.3793958,127.561607 C19.9231042,126.874518 19.6959375,126.051179 19.6959375,125.089643 C19.6959375,123.701839 20.1502708,122.621571 21.0608958,121.852732 C21.9715208,121.083893 23.3854375,120.700446 25.3026458,120.700446 L33.3670625,120.700446 L33.3670625,122.993339 L25.2908958,122.993339 C23.9259375,122.993339 22.9702708,123.221071 22.4258542,123.678482 C21.8794792,124.133946 21.6072708,124.826875 21.6072708,125.755321 C21.6151042,126.668196 21.9206042,127.388375 22.5237708,127.913911 C23.1288958,128.439446 23.8887292,128.746982 24.8071875,128.838464 L24.8189375,128.838464 L33.3670625,128.838464 L33.3670625,131.131357 L25.2654375,131.131357 C23.9690208,131.131357 23.0329375,131.366875 22.4630625,131.834018 C21.8912292,132.303107 21.6072708,132.997982 21.6072708,133.918643 C21.6072708,134.714732 21.7717708,135.359 22.1027292,135.847554 C22.4336875,136.336107 22.9056458,136.713714 23.5166458,136.976482 L33.3670625,136.976482 L33.3670625,139.269375 L19.9446458,139.269375 L19.9446458,137.210054 Z" id="Fill-27" fill="#FEFEFE"></path>
            </g>
        </g>
    </g>
</svg>